Marie has had a tough childhood ever since her mother Elisa committed suicide. She has spent most of her life in an orphanage and now makes a living as a small time criminal in Paris. Now she wants to unravel her past and find her father whom she blames for her mother's death. From IMDb.

Director:
Jean Becker

Writers:
Jean Becker, Fabrice Carazo

Stars:
Vanessa Paradis, Gérard Depardieu and Clotilde Courau

General
Format                           : DivX
Format/Info                      : Hack of AVI
File size                        : 677 MiB
Duration                         : 1h 49mn
Overall bit rate                 : 861 Kbps

Video
ID                               : 0
Format                           : MPEG-4 Visual
Format settings, BVOP            : Yes
Format settings, QPel            : No
Format settings, GMC             : No warppoints
Format settings, Matrix          : Default (MPEG)
Codec ID                         : DIVX
Codec ID/Info                    : Project Mayo
Codec ID/Hint                    : DivX 4
Duration                         : 1h 49mn
Bit rate                         : 750 Kbps
Width                            : 576 pixels
Height                           : 320 pixels
Display aspect ratio             : 16:9
Frame rate                       : 25.000 fps
Color space                      : YUV
Chroma subsampling               : 4:2:0
Bit depth                        : 8 bits
Scan type                        : Progressive
Bits/(Pixel*Frame)               : 0.163
Stream size                      : 590 MiB (87%)
Title                            : Video

Audio
ID                               : 1
Format                           : MPEG Audio
Format version                   : Version 1
Format profile                   : Layer 3
Mode                             : Joint stereo
Mode extension                   : MS Stereo
Codec ID                         : 55
Codec ID/Hint                    : MP3
Duration                         : 1h 49mn
Bit rate mode                    : Constant
Bit rate                         : 96.0 Kbps
Channel(s)                       : 2 channels
Sampling rate                    : 48.0 KHz
Stream size                      : 75.5 MiB (11%)
Alignment                        : Split accross interleaves
Interleave, duration             : 24 ms (0.60 video frame)
Interleave, preload duration     : 23 ms
Title                            : Audio

Text
ID                               : 2
Format                           : DivX Subtitle
Codec ID                         : DXSB
Codec ID/Info                    : Subtitle in AVI from DivX networks
Width                            : 720 pixels
Height                           : 480 pixels
Bit depth                        : 4 bits
Stream size                      : 1.80 MiB (0%)
Title                            : Subtitle - pt;02 